<svg width="70" height="70" viewBox="0 0 70 70" fill="none" xmlns="http://www.w3.org/2000/svg">
<path d="M35.0002 38.4166C36.8871 38.4166 38.4168 36.8869 38.4168 34.9999C38.4168 33.1129 36.8871 31.5833 35.0002 31.5833C33.1132 31.5833 31.5835 33.1129 31.5835 34.9999C31.5835 36.8869 33.1132 38.4166 35.0002 38.4166Z" fill="white"/>
<path d="M48.6667 38.4166C50.5536 38.4166 52.0833 36.8869 52.0833 34.9999C52.0833 33.1129 50.5536 31.5833 48.6667 31.5833C46.7797 31.5833 45.25 33.1129 45.25 34.9999C45.25 36.8869 46.7797 38.4166 48.6667 38.4166Z" fill="white"/>
<path d="M21.3332 38.4166C23.2201 38.4166 24.7498 36.8869 24.7498 34.9999C24.7498 33.1129 23.2201 31.5833 21.3332 31.5833C19.4462 31.5833 17.9165 33.1129 17.9165 34.9999C17.9165 36.8869 19.4462 38.4166 21.3332 38.4166Z" fill="white"/>
<path d="M59.1559 10.8443C53.5498 5.20166 46.1508 1.69176 38.2343 0.919693C30.3179 0.147625 22.3801 2.16177 15.7894 6.6149C9.19881 11.068 4.36838 17.6811 2.1309 25.3139C-0.106579 32.9468 0.38912 41.1211 3.53254 48.4276C3.86016 49.1067 3.96766 49.8712 3.84004 50.6143L0.833371 65.0668C0.717533 65.6209 0.741187 66.1951 0.902208 66.7378C1.06323 67.2805 1.35657 67.7747 1.75587 68.1759C2.0832 68.5009 2.47294 68.7562 2.9016 68.9265C3.33025 69.0968 3.78895 69.1785 4.25004 69.1668H4.93337L19.5567 66.2284C20.2999 66.1391 21.0536 66.2451 21.7434 66.5359C29.0499 69.6794 37.2242 70.1751 44.8571 67.9376C52.4899 65.7001 59.103 60.8697 63.5561 54.279C68.0092 47.6884 70.0234 39.7506 69.2513 31.8342C68.4792 23.9177 64.9693 16.5186 59.3267 10.9126L59.1559 10.8443ZM61.9917 39.4076C61.3237 43.4871 59.7391 47.3618 57.3572 50.7404C54.9752 54.1189 51.858 56.9132 48.2401 58.9129C44.6222 60.9126 40.5979 62.0656 36.47 62.2853C32.342 62.5049 28.218 61.7854 24.4084 60.181C23.0572 59.6062 21.6058 59.3043 20.1375 59.2926C19.4962 59.2971 18.8562 59.3542 18.2242 59.4634L8.5892 61.4109L10.5367 51.7759C10.9246 49.6893 10.6745 47.5342 9.8192 45.5918C8.21471 41.7821 7.49521 37.6581 7.71485 33.5302C7.9345 29.4023 9.08756 25.3779 11.0873 21.76C13.087 18.1421 15.8813 15.0249 19.2598 12.643C22.6383 10.2611 26.5131 8.67646 30.5925 8.00845C34.8745 7.3057 39.2624 7.63253 43.393 8.96191C47.5237 10.2913 51.2784 12.585 54.3468 15.6534C57.4151 18.7217 59.7089 22.4765 61.0382 26.6072C62.3676 30.7378 62.6945 35.1256 61.9917 39.4076Z" fill="white"/>
</svg>
