<svg width="63" height="63" viewBox="0 0 63 63" fill="none" xmlns="http://www.w3.org/2000/svg">
<path d="M18.25 47.5H15C6.875 47.5 2 41 2 34.5C2 28 6.875 21.5 15 21.5C18.25 21.5 19.875 23.125 19.875 23.125M44.25 47.5H47.5C55.625 47.5 60.5 41 60.5 34.5C60.5 28 55.625 21.5 47.5 21.5C44.25 21.5 42.625 23.125 42.625 23.125" stroke="white" stroke-width="4" stroke-linecap="round" stroke-linejoin="round"/>
<path d="M47.5 21.5C47.5 21.5 47.5 19.875 47.5 18.25C47.5 10.125 41 2 31.25 2M15 21.5V18.25C15 10.125 21.5 2 31.25 2" stroke="white" stroke-width="4" stroke-linecap="round" stroke-linejoin="round"/>
<path d="M31.25 37.75V57.25" stroke="white" stroke-width="4" stroke-linecap="round" stroke-linejoin="round"/>
<path d="M31.25 60.5L37.75 54M31.25 60.5L24.75 54" stroke="white" stroke-width="4" stroke-linecap="round" stroke-linejoin="round"/>
</svg>
