<svg width="68" height="68" viewBox="0 0 68 68" fill="none" xmlns="http://www.w3.org/2000/svg">
<path d="M8.5 14.1667L14.1667 19.8333L25.5 8.5" stroke="white" stroke-width="3" stroke-linecap="round" stroke-linejoin="round"/>
<path d="M8.5 33.9999L14.1667 39.6666L25.5 28.3333" stroke="white" stroke-width="3" stroke-linecap="round" stroke-linejoin="round"/>
<path d="M8.5 53.8334L14.1667 59.5001L25.5 48.1667" stroke="white" stroke-width="3" stroke-linecap="round" stroke-linejoin="round"/>
<path d="M53.8333 9.91675H36.8333C34.4861 9.91675 32.5833 11.8195 32.5833 14.1667C32.5833 16.514 34.4861 18.4167 36.8333 18.4167H53.8333C56.1805 18.4167 58.0833 16.514 58.0833 14.1667C58.0833 11.8195 56.1805 9.91675 53.8333 9.91675Z" fill="white" stroke="white" stroke-linecap="round" stroke-linejoin="round"/>
<path d="M53.8333 29.75H36.8333C34.4861 29.75 32.5833 31.6528 32.5833 34C32.5833 36.3472 34.4861 38.25 36.8333 38.25H53.8333C56.1805 38.25 58.0833 36.3472 58.0833 34C58.0833 31.6528 56.1805 29.75 53.8333 29.75Z" fill="white" stroke="white" stroke-linecap="round" stroke-linejoin="round"/>
<path d="M53.8333 49.5835H36.8333C34.4861 49.5835 32.5833 51.4863 32.5833 53.8335C32.5833 56.1807 34.4861 58.0835 36.8333 58.0835H53.8333C56.1805 58.0835 58.0833 56.1807 58.0833 53.8335C58.0833 51.4863 56.1805 49.5835 53.8333 49.5835Z" fill="white" stroke="white" stroke-linecap="round" stroke-linejoin="round"/>
</svg>
