<svg width="56" height="68" viewBox="0 0 56 68" fill="none" xmlns="http://www.w3.org/2000/svg">
<path fill-rule="evenodd" clip-rule="evenodd" d="M10.5925 7.45418L7.42957 3.24427H13.7432L10.5925 7.45418ZM45.3385 18.1378L42.1804 13.9279H48.4941L45.3385 18.1378ZM31.9525 24.5426V10.6221H38.675H56V13.7235C56.0056 16.5244 54.9155 19.2165 52.9626 21.2245C52.0076 22.2059 50.8659 22.9864 49.6049 23.5203C48.3438 24.0542 46.9887 24.3306 45.6193 24.3332V25.6635C43.0771 24.6461 40.0595 24.0992 36.5418 24.0992C35.0014 24.0963 33.4644 24.2432 31.9525 24.5377V24.5426ZM10.3832 33.9527V13.7185C9.01422 13.7166 7.65952 13.4407 6.39881 12.9072C5.1381 12.3738 3.99686 11.5934 3.04229 10.6122C1.08675 8.60566 -0.00529934 5.91311 1.9337e-05 3.11125V0H17.325H24.0377V27.6884C22.9496 28.4191 21.9319 29.2495 20.9978 30.169C18.7463 32.0436 17.4284 33.0856 15.9947 33.566C14.5167 34.0587 12.9771 33.9527 10.3832 33.9527ZM13.7432 45.0798L10.5925 40.8699H16.9013L13.7432 45.0798ZM24.0377 50.8318V67.0039H10.3832V56.6897C10.3832 56.6897 18.0566 56.3596 24.0377 50.8293V50.8318ZM10.3832 38.5321C16.8988 38.5321 18.0886 38.5321 24.0377 33.5758C25.6545 31.9459 27.598 30.6765 29.7404 29.8512C31.9075 29.0236 34.2097 28.6059 36.5294 28.6195C41.7518 28.6195 45.6177 29.9777 48.127 32.6939C50.6364 35.4102 51.8911 39.0946 51.8911 43.7471V67.0039H38.2366V45.5232C38.2366 41.3322 36.3225 39.2375 32.4944 39.2391C30.7726 39.2021 29.0736 39.6383 27.5825 40.5C26.0914 41.3618 24.8652 42.6161 24.0377 44.1265C18.0886 52.2556 10.9448 52.2975 10.3832 52.2556C9.01431 52.2531 7.65977 51.977 6.39914 51.4435C5.1385 50.9101 3.9972 50.1301 3.04229 49.1493C1.08668 47.1408 -0.00527494 44.4467 1.9337e-05 41.6434V38.5321H10.3832Z" fill="white"/>
</svg>
