<svg width="105" height="35" viewBox="0 0 105 35" fill="none" xmlns="http://www.w3.org/2000/svg">
<path fill-rule="evenodd" clip-rule="evenodd" d="M5.52452 3.89375L3.87485 1.69467H7.16777L5.52452 3.89375ZM23.6465 9.47445L21.9994 7.27537H25.2923L23.6465 9.47445ZM16.665 12.82V5.54853H20.1712H29.2071V7.16857C29.21 8.63167 28.6415 10.0379 27.6229 11.0868C27.1248 11.5994 26.5294 12.0071 25.8717 12.286C25.214 12.5649 24.5072 12.7093 23.793 12.7107V13.4055C22.4671 12.8741 20.8932 12.5884 19.0585 12.5884C18.2551 12.5869 17.4535 12.6636 16.665 12.8175V12.82ZM5.41532 17.7355V7.16599C4.70134 7.16495 3.99479 7.02086 3.33725 6.74219C2.67972 6.46353 2.0845 6.05593 1.58664 5.54338C0.566712 4.49523 -0.00285546 3.08876 -8.14674e-05 1.62518V0H9.03586H12.5369V14.4632C11.9694 14.8449 11.4387 15.2787 10.9515 15.759C9.77719 16.7382 9.08982 17.2825 8.34207 17.5335C7.5712 17.7908 6.7682 17.7355 5.41532 17.7355ZM7.16777 23.5478L5.52452 21.3487H8.81488L7.16777 23.5478ZM12.5369 26.5524V35H5.41532V29.6123C5.41532 29.6123 9.41744 29.4399 12.5369 26.5511V26.5524ZM5.41532 20.1276C8.81359 20.1276 9.43415 20.1276 12.5369 17.5386C13.3802 16.6872 14.3938 16.0241 15.5112 15.593C16.6415 15.1607 17.8422 14.9425 19.0521 14.9496C21.7759 14.9496 23.7921 15.6591 25.1009 17.0779C26.4097 18.4968 27.0641 20.4214 27.0641 22.8517V35H19.9425V23.7794C19.9425 21.5902 18.9442 20.496 16.9476 20.4969C16.0496 20.4776 15.1635 20.7054 14.3858 21.1555C13.608 21.6057 12.9686 22.2609 12.5369 23.0498C9.43415 27.2961 5.70825 27.318 5.41532 27.2961C4.70138 27.2948 3.99492 27.1506 3.33742 26.8719C2.67993 26.5933 2.08468 26.1858 1.58664 25.6735C0.566674 24.6244 -0.00284274 23.2171 -8.14674e-05 21.7528V20.1276H5.41532Z" fill="white"/>
<path d="M38.0478 19.3015V0H41.2508V7.4182C41.7566 6.93357 42.3344 6.53032 42.9634 6.2228C43.65 5.90638 44.3997 5.75103 45.1553 5.76857C45.8163 5.75708 46.4724 5.88282 47.0825 6.13787C47.6277 6.3699 48.1116 6.72586 48.4957 7.17757C48.8849 7.64759 49.1758 8.19104 49.3514 8.77574C49.5527 9.43873 49.6511 10.1288 49.6431 10.8217V19.3015H46.4401V10.8217C46.4401 10.0067 46.2516 9.37666 45.8748 8.93144C45.4979 8.48621 44.9339 8.26318 44.1827 8.26232C43.6408 8.25963 43.1064 8.38902 42.6255 8.63934C42.1171 8.9096 41.6534 9.25683 41.2508 9.66875V19.3015H38.0478Z" fill="white"/>
<path d="M58.0353 22.9688C57.9586 23.1692 57.8316 23.3465 57.6666 23.4835C57.4601 23.6149 57.2168 23.6762 56.9728 23.6585H54.5857L57.0756 18.3184L51.6923 5.97702H54.4945C54.709 5.96259 54.9215 6.02711 55.0919 6.15846C55.2245 6.27322 55.3306 6.41547 55.4028 6.57537L58.2435 13.4866C58.3399 13.7151 58.4223 13.9493 58.4902 14.1879C58.5582 14.4298 58.6186 14.673 58.6713 14.9149C58.7407 14.6635 58.8165 14.4212 58.8987 14.1879C58.9809 13.9545 59.0696 13.7165 59.1647 13.4737L61.8358 6.57537C61.9063 6.40015 62.0276 6.25005 62.1839 6.1443C62.3412 6.03281 62.5296 5.97382 62.7223 5.97574H65.2918L58.0353 22.9688Z" fill="white"/>
<path d="M76.986 19.3015C76.8031 19.3144 76.6213 19.2631 76.4721 19.1562C76.323 19.0493 76.2157 18.8936 76.1689 18.716L75.9119 17.4292C75.6445 17.7325 75.3541 18.0147 75.0434 18.2733C74.7408 18.5219 74.4126 18.7376 74.0644 18.9167C73.7059 19.1015 73.3268 19.2432 72.9351 19.3388C72.5084 19.4409 72.071 19.4911 71.6323 19.4881C70.9412 19.4988 70.2573 19.3467 69.6357 19.0441C69.0195 18.7318 68.4842 18.2803 68.0721 17.7252C67.6037 17.0829 67.2607 16.3577 67.061 15.5879C66.8103 14.6389 66.6902 13.66 66.7038 12.6785C66.6962 11.745 66.8319 10.8158 67.106 9.92353C67.3502 9.12158 67.7424 8.37261 68.2623 7.71544C68.7489 7.10327 69.3626 6.60447 70.061 6.25368C70.7961 5.89538 71.605 5.7151 72.4224 5.72739C73.0761 5.71031 73.7259 5.83223 74.3291 6.08511C74.8512 6.32018 75.3292 6.64312 75.7424 7.03989V0H78.9466V19.3015H76.986ZM72.7192 16.9531C73.3126 16.9718 73.8998 16.8281 74.4177 16.5375C74.9252 16.2254 75.3733 15.8254 75.7411 15.3562V9.37923C75.4269 8.97563 75.0195 8.65458 74.5539 8.44375C74.1167 8.26017 73.6468 8.16736 73.1728 8.17096C72.7192 8.16479 72.2698 8.25789 71.8559 8.44375C71.4591 8.62843 71.1156 8.91089 70.8576 9.26471C70.5602 9.68768 70.3465 10.1638 70.228 10.6673C70.0713 11.3246 69.9975 11.9989 70.0083 12.6746C69.9971 13.3397 70.06 14.0039 70.1959 14.655C70.2929 15.126 70.4753 15.5752 70.7342 15.9803C70.945 16.3029 71.2419 16.5597 71.5912 16.7215C71.9466 16.8779 72.3311 16.9569 72.7192 16.9531Z" fill="white"/>
<path d="M83.2648 19.3015V5.97574H85.1457C85.4746 5.97574 85.7038 6.03622 85.8331 6.15717C85.9616 6.27941 86.0489 6.48658 86.0901 6.78125L86.2841 8.39228C86.7018 7.63522 87.2702 6.97213 87.9543 6.44412C88.5736 5.97427 89.3307 5.72273 90.1076 5.72868C90.7646 5.72868 91.3093 5.88052 91.7419 6.18419L91.3269 8.58658C91.3154 8.71507 91.2546 8.83408 91.1573 8.91857C91.0544 8.98822 90.9318 9.02254 90.8078 9.01636C90.6274 9.00792 90.4488 8.97723 90.2759 8.925C89.9812 8.85651 89.679 8.82581 89.3766 8.83364C88.7597 8.81785 88.1558 9.0125 87.6639 9.38567C87.1886 9.7554 86.7868 10.2945 86.4588 11.0031V19.3015H83.2648Z" fill="white"/>
<path d="M104.992 19.3015H103.554C103.309 19.3129 103.065 19.2662 102.841 19.1651C102.744 19.103 102.66 19.0223 102.593 18.9276C102.527 18.8328 102.481 18.726 102.456 18.6131L102.171 17.6647C101.855 17.9496 101.523 18.2164 101.177 18.4638C100.862 18.6882 100.525 18.8817 100.173 19.0415C99.8196 19.1996 99.4498 19.317 99.0703 19.3915C98.6427 19.4734 98.208 19.5126 97.7727 19.5086C97.245 19.5138 96.7197 19.4369 96.2155 19.2809C95.7632 19.1422 95.3454 18.9089 94.9898 18.5963C94.6422 18.2833 94.3695 17.8958 94.192 17.4627C93.9926 16.9612 93.8956 16.4248 93.9067 15.8851C93.9119 15.3622 94.0479 14.849 94.3025 14.3925C94.5671 13.9018 95.0061 13.4587 95.6194 13.0632C96.2327 12.6678 97.0498 12.3396 98.0708 12.0789C99.0909 11.8215 100.358 11.6928 101.871 11.6928V10.9079C101.871 10.0097 101.683 9.34449 101.307 8.91213C100.931 8.47978 100.384 8.26532 99.6665 8.26875C99.2269 8.25707 98.7884 8.31838 98.3688 8.45019C98.0566 8.55734 97.7555 8.69437 97.4695 8.85938C97.2125 9.01122 96.9787 9.14761 96.7616 9.26857C96.544 9.39103 96.2981 9.45404 96.0485 9.45129C95.8494 9.45624 95.654 9.39716 95.4909 9.28272C95.3374 9.17192 95.2091 9.02984 95.1145 8.86581L94.5312 7.8364C96.0618 6.43383 97.908 5.73211 100.07 5.73125C100.782 5.72005 101.49 5.85129 102.151 6.11728C102.738 6.35743 103.267 6.72073 103.702 7.18272C104.135 7.6524 104.464 8.20784 104.668 8.81305C104.895 9.48202 105.007 10.1847 105 10.8912L104.992 19.3015ZM98.7645 17.3006C99.0697 17.3032 99.3742 17.273 99.6729 17.2105C99.9442 17.1526 100.208 17.0628 100.458 16.9428C100.71 16.8201 100.949 16.6723 101.171 16.5015C101.417 16.3119 101.649 16.1046 101.865 15.8813V13.6539C101.081 13.6422 100.297 13.7012 99.5239 13.8302C99.0031 13.9164 98.4954 14.0686 98.0129 14.2831C97.6897 14.4203 97.4095 14.6427 97.2022 14.9265C97.0445 15.1624 96.9608 15.4403 96.962 15.7243C96.962 16.2913 97.1286 16.6971 97.4618 16.9415C97.795 17.186 98.2292 17.307 98.7645 17.3044V17.3006Z" fill="white"/>
<path d="M38.3793 33.6811V26.5563H40.647C41.0274 26.5493 41.4071 26.5926 41.7763 26.6849C42.0578 26.7552 42.3228 26.8802 42.5562 27.0529C42.7544 27.2053 42.9098 27.4066 43.0071 27.6371C43.1079 27.8841 43.1578 28.1489 43.1536 28.4156C43.1542 28.5879 43.1269 28.7591 43.0726 28.9226C43.0165 29.0867 42.9326 29.2399 42.8247 29.3756C42.7056 29.5208 42.5648 29.6467 42.4071 29.7487C42.2241 29.8645 42.0261 29.9545 41.8187 30.0164C42.3377 30.1193 42.73 30.3067 42.9956 30.5787C43.13 30.7219 43.2344 30.8907 43.3026 31.075C43.3707 31.2593 43.4014 31.4555 43.3926 31.6518C43.3962 31.9358 43.3397 32.2174 43.2268 32.4779C43.1158 32.7269 42.9492 32.947 42.7399 33.1213C42.508 33.3102 42.2413 33.4514 41.9549 33.537C41.6111 33.6398 41.2537 33.6893 40.8949 33.6836L38.3793 33.6811ZM39.3416 29.7487H40.6123C40.8505 29.7526 41.088 29.7223 41.3176 29.6586C41.4967 29.6089 41.6643 29.5246 41.811 29.4103C41.9387 29.3082 42.0386 29.1754 42.1013 29.0243C42.1657 28.8676 42.1981 28.6996 42.1964 28.5302C42.1964 28.1124 42.0705 27.8057 41.8187 27.6101C41.5669 27.4145 41.1763 27.3167 40.647 27.3167H39.3416V29.7487ZM39.3416 30.4346V32.9154H40.8834C41.1228 32.9201 41.3616 32.888 41.5913 32.8202C41.7699 32.7669 41.9353 32.6766 42.0769 32.5552C42.202 32.444 42.2982 32.304 42.357 32.1472C42.4181 31.9826 42.4485 31.8082 42.447 31.6325C42.4545 31.4672 42.4237 31.3023 42.3568 31.1509C42.2899 30.9995 42.1888 30.8657 42.0615 30.7601C41.8046 30.5465 41.4088 30.4397 40.8821 30.4397L39.3416 30.4346Z" fill="white"/>
<path d="M50.536 32.9155C50.8063 32.9199 51.0748 32.8691 51.3249 32.7662C51.5491 32.6714 51.7499 32.5287 51.9133 32.348C52.0783 32.1609 52.2034 31.9419 52.2807 31.7046C52.3679 31.4398 52.4113 31.1625 52.4092 30.8837V26.5563H53.3677V30.8824C53.3714 31.2724 53.3048 31.66 53.1711 32.0263C53.0483 32.3654 52.8577 32.6758 52.6109 32.9386C52.3597 33.2007 52.0558 33.4065 51.7193 33.5421C50.9586 33.8338 50.1172 33.8338 49.3566 33.5421C49.0197 33.4064 48.7154 33.2007 48.4636 32.9386C48.2153 32.6764 48.0233 32.3659 47.8996 32.0263C47.7663 31.6599 47.7002 31.2723 47.7043 30.8824V26.5563H48.6615V30.8824C48.6588 31.1613 48.7022 31.4387 48.79 31.7033C48.8668 31.9409 48.9919 32.1599 49.1574 32.3467C49.3213 32.528 49.5225 32.6715 49.7471 32.7675C49.9973 32.8699 50.2657 32.9203 50.536 32.9155Z" fill="white"/>
<path d="M61.6302 27.6654C61.6063 27.7084 61.5745 27.7464 61.5364 27.7774C61.4989 27.8037 61.4537 27.8168 61.4079 27.8147C61.3355 27.8085 61.267 27.7792 61.2126 27.731C61.1214 27.6637 61.0266 27.6015 60.9287 27.5445C60.7981 27.4689 60.6604 27.4064 60.5175 27.3579C60.3292 27.2971 60.1321 27.2684 59.9343 27.2729C59.7401 27.2698 59.5468 27.2994 59.3625 27.3604C59.2104 27.4107 59.0697 27.4907 58.9488 27.5959C58.8395 27.6922 58.7538 27.8124 58.6983 27.9472C58.641 28.085 58.6122 28.2329 58.6135 28.3821C58.6067 28.5585 58.6582 28.7322 58.76 28.8763C58.864 29.0135 58.9952 29.1279 59.1454 29.2121C59.3187 29.3107 59.5017 29.3914 59.6914 29.4527L60.3171 29.665C60.5304 29.7371 60.7398 29.8195 60.9428 29.9108C61.1406 29.9985 61.3246 30.1147 61.4889 30.2557C61.6511 30.3991 61.7823 30.5742 61.8743 30.7704C61.9784 31.005 62.0284 31.2601 62.0208 31.5167C62.0228 31.8165 61.9692 32.1141 61.8627 32.3943C61.7599 32.6622 61.6013 32.9052 61.3976 33.1071C61.1835 33.3163 60.9285 33.4788 60.6486 33.5845C60.3257 33.7049 59.9832 33.7639 59.6388 33.7582C59.2061 33.7638 58.7772 33.6783 58.3797 33.5073C58.014 33.3491 57.684 33.1184 57.4096 32.8292L57.6872 32.3724C57.7135 32.3355 57.7466 32.3041 57.7848 32.2797C57.8229 32.2546 57.8677 32.2416 57.9133 32.2424C58.0033 32.2515 58.0876 32.291 58.1522 32.3544C58.259 32.4424 58.3705 32.5245 58.4863 32.6002C58.6391 32.6997 58.8024 32.7821 58.9732 32.8459C59.1969 32.9262 59.4334 32.9641 59.6709 32.9579C59.8781 32.9614 60.0845 32.9297 60.2811 32.8639C60.4493 32.8071 60.604 32.7164 60.736 32.5976C60.8592 32.4832 60.9565 32.3437 61.0212 32.1884C61.0888 32.019 61.1224 31.838 61.1201 31.6557C61.128 31.4683 61.0768 31.2833 60.9736 31.1268C60.8714 30.9851 60.7399 30.8671 60.5882 30.7807C60.4162 30.6825 60.234 30.6035 60.0447 30.5452L59.4191 30.3457C59.2066 30.278 58.9978 30.1994 58.7934 30.1103C58.5948 30.0237 58.4114 29.906 58.2499 29.7616C58.0858 29.6123 57.9545 29.4304 57.8645 29.2275C57.7596 28.9764 57.7096 28.7057 57.718 28.4336C57.7182 28.1808 57.7689 27.9306 57.8671 27.6977C57.9653 27.4648 58.109 27.2539 58.2897 27.0774C58.4853 26.8859 58.7173 26.7358 58.9719 26.636C59.272 26.5214 59.5913 26.4655 59.9124 26.4713C60.2833 26.4667 60.6518 26.5308 60.9993 26.6604C61.32 26.7823 61.6125 26.9684 61.8589 27.2073L61.6302 27.6654Z" fill="white"/>
<path d="M67.3591 33.6811H66.3955V26.5563H67.3591V33.6811Z" fill="white"/>
<path d="M72.9312 26.5884C72.986 26.622 73.034 26.6656 73.0725 26.7171L77.1929 32.0868C77.1826 32.0006 77.1762 31.9169 77.1723 31.8359C77.1684 31.7548 77.1723 31.6763 77.1723 31.6004V26.5563H78.0164V33.6811H77.5308C77.4647 33.683 77.3992 33.6693 77.3393 33.6412C77.2801 33.6071 77.2284 33.5611 77.1877 33.5061L73.0764 28.1416C73.0764 28.2252 73.0879 28.3063 73.0918 28.3861C73.0957 28.4658 73.0918 28.5379 73.0918 28.6048V33.6811H72.2438V26.5563H72.7398C72.8052 26.5523 72.8707 26.5633 72.9312 26.5884Z" fill="white"/>
<path d="M87.1012 26.5563V27.3412H83.6849V29.7088H86.4498V30.4642H83.6849V32.8949H87.1012V33.6811H82.7175V26.5563H87.1012Z" fill="white"/>
<path d="M95.0977 27.6655C95.0739 27.7084 95.042 27.7464 95.0039 27.7774C94.9664 27.8038 94.9212 27.8169 94.8755 27.8147C94.8027 27.8087 94.7338 27.7794 94.6789 27.7311C94.5883 27.6635 94.494 27.6012 94.3962 27.5445C94.2655 27.4691 94.1279 27.4067 93.9851 27.3579C93.7972 27.2996 93.601 27.2731 93.4044 27.2794C93.2102 27.2763 93.017 27.3058 92.8326 27.3669C92.6805 27.4171 92.5399 27.4972 92.4189 27.6024C92.3096 27.6987 92.2239 27.8189 92.1684 27.9537C92.1112 28.0915 92.0823 28.2394 92.0836 28.3886C92.0768 28.565 92.1283 28.7387 92.2301 28.8827C92.3342 29.02 92.4654 29.1343 92.6155 29.2186C92.7889 29.3172 92.9718 29.3978 93.1616 29.4592L93.7872 29.6715C94.0005 29.7436 94.2091 29.8255 94.4129 29.9173C94.6107 30.005 94.7947 30.1212 94.959 30.2621C95.1212 30.4056 95.2524 30.5807 95.3444 30.7769C95.4485 31.0115 95.4986 31.2666 95.4909 31.5232C95.493 31.823 95.4394 32.1206 95.3328 32.4008C95.23 32.6687 95.0714 32.9117 94.8678 33.1136C94.6536 33.3228 94.3986 33.4853 94.1187 33.591C93.7959 33.7114 93.4534 33.7703 93.1089 33.7647C92.6763 33.7703 92.2473 33.6848 91.8498 33.5138C91.484 33.3557 91.154 33.1251 90.8798 32.8357L91.1573 32.3789C91.1836 32.342 91.2167 32.3105 91.2549 32.2862C91.293 32.2611 91.3378 32.2481 91.3834 32.2489C91.4734 32.258 91.5577 32.2974 91.6224 32.3609C91.7291 32.4489 91.8406 32.531 91.9564 32.6066C92.1093 32.7062 92.2726 32.7886 92.4434 32.8524C92.667 32.9327 92.9035 32.9706 93.141 32.9644C93.3483 32.9679 93.5546 32.9362 93.7513 32.8704C93.9194 32.8136 94.0742 32.7229 94.2061 32.6041C94.3293 32.4897 94.4266 32.3502 94.4913 32.1949C94.5589 32.0255 94.5925 31.8445 94.5902 31.6621C94.5981 31.4748 94.5469 31.2898 94.4438 31.1333C94.3415 30.9916 94.2101 30.8736 94.0583 30.7871C93.8863 30.689 93.7041 30.61 93.5149 30.5517L92.8905 30.3471C92.6767 30.2791 92.4666 30.2 92.2609 30.1103C92.0622 30.0241 91.8787 29.9063 91.7174 29.7616C91.5533 29.6123 91.4221 29.4305 91.332 29.2276C91.2271 28.9765 91.1772 28.7057 91.1855 28.4337C91.1858 28.1808 91.2365 27.9306 91.3347 27.6977C91.4329 27.4648 91.5765 27.2539 91.7573 27.0774C91.9547 26.8868 92.1885 26.738 92.4446 26.6399C92.7447 26.5253 93.064 26.4694 93.3851 26.4752C93.756 26.4706 94.1245 26.5347 94.472 26.6644C94.7927 26.7862 95.0852 26.9723 95.3316 27.2112L95.0977 27.6655Z" fill="white"/>
<path d="M103.328 27.6655C103.304 27.7084 103.272 27.7464 103.234 27.7774C103.197 27.8037 103.152 27.8169 103.106 27.8147C103.033 27.8086 102.965 27.7793 102.911 27.7311C102.819 27.6638 102.725 27.6015 102.627 27.5445C102.496 27.4689 102.358 27.4064 102.215 27.3579C102.025 27.2987 101.826 27.2722 101.627 27.2794C101.433 27.2763 101.24 27.3058 101.055 27.3669C100.903 27.4171 100.763 27.4972 100.642 27.6024C100.53 27.698 100.442 27.8182 100.385 27.9537C100.327 28.0915 100.299 28.2394 100.3 28.3886C100.293 28.565 100.345 28.7387 100.446 28.8827C100.55 29.02 100.682 29.1343 100.832 29.2186C101.005 29.3172 101.188 29.3978 101.378 29.4592L102.003 29.6715C102.217 29.7436 102.426 29.8259 102.629 29.9173C102.827 30.005 103.011 30.1212 103.175 30.2621C103.337 30.4055 103.469 30.5807 103.561 30.7769C103.665 31.0115 103.715 31.2665 103.707 31.5232C103.709 31.823 103.656 32.1206 103.549 32.4007C103.446 32.6687 103.288 32.9117 103.084 33.1136C102.87 33.3227 102.615 33.4853 102.335 33.591C102.012 33.7114 101.67 33.7703 101.325 33.7647C100.893 33.7703 100.464 33.6848 100.066 33.5138C99.7004 33.3556 99.3704 33.1249 99.096 32.8357L99.3735 32.3789C99.3998 32.342 99.433 32.3105 99.4712 32.2862C99.5093 32.2611 99.554 32.2481 99.5996 32.2489C99.6897 32.258 99.774 32.2974 99.8386 32.3609C99.9453 32.4489 100.057 32.531 100.173 32.6066C100.326 32.7062 100.489 32.7886 100.66 32.8524C100.883 32.9327 101.12 32.9706 101.357 32.9644C101.565 32.9679 101.771 32.9362 101.968 32.8704C102.136 32.8135 102.29 32.7229 102.422 32.6041C102.546 32.4897 102.643 32.3501 102.708 32.1949C102.775 32.0255 102.809 31.8445 102.806 31.6621C102.814 31.4748 102.763 31.2898 102.66 31.1333C102.558 30.9916 102.426 30.8736 102.275 30.7871C102.103 30.689 101.92 30.61 101.731 30.5517L101.113 30.3471C100.901 30.2793 100.692 30.2007 100.487 30.1116C100.289 30.0253 100.105 29.9076 99.944 29.7629C99.7799 29.6136 99.6486 29.4318 99.5585 29.2289C99.4537 28.9777 99.4037 28.707 99.4121 28.4349C99.4123 28.1821 99.463 27.9319 99.5612 27.699C99.6594 27.4661 99.8031 27.2552 99.9838 27.0787C100.181 26.8881 100.415 26.7393 100.671 26.6412C100.971 26.5266 101.291 26.4707 101.612 26.4765C101.982 26.4719 102.351 26.536 102.699 26.6656C103.019 26.7875 103.312 26.9736 103.558 27.2125L103.328 27.6655Z" fill="white"/>
</svg>
